<svg xmlns="http://www.w3.org/2000/svg" width="41.79" height="41.79" viewBox="0 0 41.79 41.79">
  <g id="Dribbble" transform="translate(-1130.41 -6206.456)">
    <path id="Background" d="M41.79,20.895A20.895,20.895,0,1,1,20.895,0,20.895,20.895,0,0,1,41.79,20.895Z" transform="translate(1130.41 6206.456)" fill="#fff"/>
    <path id="Dribbble_Icon" data-name="Dribbble Icon" d="M1151.306,6235.311a7.96,7.96,0,1,1,7.96-7.96A7.969,7.969,0,0,1,1151.306,6235.311Zm1.207-6.848-.013,0-.01,0-.023.008a9.268,9.268,0,0,0-5.333,4.246,6.791,6.791,0,0,0,6.829.9,28.373,28.373,0,0,0-1.451-5.156Zm2.685-.422a8.933,8.933,0,0,0-1.414.109A29.385,29.385,0,0,1,1155.1,6233a6.825,6.825,0,0,0,2.914-4.557A10.065,10.065,0,0,0,1155.2,6228.041Zm-10.685-.887c0,.067,0,.137,0,.207a6.779,6.779,0,0,0,1.748,4.546,10.828,10.828,0,0,1,5.527-4.485c.087-.029.175-.056.268-.082-.156-.354-.336-.732-.551-1.155a25.232,25.232,0,0,1-6.773.971h-.214Zm10.427-.168a16.57,16.57,0,0,1,3.166.312,6.729,6.729,0,0,0-1.535-4.236,9.216,9.216,0,0,1-3.8,2.681c.166.341.318.672.451.984.05.119.1.234.147.352A12.538,12.538,0,0,1,1154.94,6226.985Zm-6.525-5.777h0a6.842,6.842,0,0,0-3.765,4.76h.108a25.476,25.476,0,0,0,6.178-.83,43.616,43.616,0,0,0-2.521-3.931Zm2.892-.646a6.794,6.794,0,0,0-1.593.189l.013.015a36.553,36.553,0,0,1,2.524,3.964,7.7,7.7,0,0,0,3.563-2.455A6.782,6.782,0,0,0,1151.306,6220.563Z" fill="#fd5b2f"/>
  </g>
</svg>
