<svg xmlns="http://www.w3.org/2000/svg" width="41.79" height="41.79" viewBox="0 0 41.79 41.79">
  <g id="Facebook" transform="translate(-1033.25 -6206.456)">
    <path id="Background" d="M20.895,41.79A20.895,20.895,0,1,0,0,20.895,20.895,20.895,0,0,0,20.895,41.79Z" transform="translate(1033.25 6206.456)" fill="#fff"/>
    <path id="Facebook_Icon" data-name="Facebook Icon" d="M5.644,2.288A3.591,3.591,0,0,0,4.6,2.116c-.424,0-1.338.292-1.338.86V4.335H5.432V6.622H3.262v6.313H1.077V6.622H0V4.335H1.077V3.182C1.077,1.445,1.827,0,3.637,0A8.236,8.236,0,0,1,5.97.258Z" transform="translate(1051.159 6220.386)" fill="#fd5b2f"/>
  </g>
</svg>
