<svg xmlns="http://www.w3.org/2000/svg" width="26.118" height="20.895" viewBox="0 0 26.118 20.895">
  <g id="Group_95" data-name="Group 95" transform="translate(-442.155 -2452.01)">
    <circle id="Ellipse_9" data-name="Ellipse 9" cx="7.836" cy="7.836" r="7.836" transform="translate(442.155 2457.234)" fill="#13ded2"/>
    <g id="working-hours">
      <g id="Group">
        <g id="Group-2" data-name="Group">
          <path id="Vector" d="M15.577,7.439h-.023A5.31,5.31,0,0,0,11.076,9.92H5.355V8.654a.724.724,0,0,0-.723-.723H3.144a.724.724,0,0,0-.723.723V9.92H2.189A1.578,1.578,0,0,1,.612,8.343V6A1.578,1.578,0,0,1,2.189,4.425H17.048A1.578,1.578,0,0,1,18.624,6V7.632a.306.306,0,1,0,.612,0V6a2.191,2.191,0,0,0-2.189-2.189H13.789V2.446A2.449,2.449,0,0,0,11.343,0H7.894A2.449,2.449,0,0,0,5.448,2.446V3.812H2.189A2.191,2.191,0,0,0,0,6v9.291a2.191,2.191,0,0,0,2.189,2.189h9.3a.306.306,0,1,0,0-.612h-9.3A1.578,1.578,0,0,1,.612,15.292V9.859a2.182,2.182,0,0,0,1.576.673h.232v.326a1.467,1.467,0,0,0,2.934,0v-.326h5.388a5.323,5.323,0,0,0,4.833,7.544H15.6a5.319,5.319,0,0,0-.022-10.637ZM11.916,3.812H7.32V2.446a.574.574,0,0,1,.574-.574h3.449a.574.574,0,0,1,.574.574V3.812ZM6.06,2.446A1.836,1.836,0,0,1,7.894.612h3.449a1.836,1.836,0,0,1,1.834,1.834V3.812h-.648V2.446A1.187,1.187,0,0,0,11.343,1.26H7.894A1.187,1.187,0,0,0,6.708,2.446V3.812H6.06Zm-2.916,6.1H4.632a.111.111,0,0,1,.111.111v.691H3.033V8.654a.111.111,0,0,1,.111-.111Zm-.111,2.315v-.9H4.743v.9a.855.855,0,0,1-1.709,0ZM15.6,17.464h-.02a4.706,4.706,0,0,1-.02-9.412h.02a4.706,4.706,0,0,1,.019,9.412Z" transform="translate(447.379 2452.01)"/>
          <path id="Vector-2" data-name="Vector" d="M4.138,0H4.12A4.177,4.177,0,0,0,0,3.589a.306.306,0,1,0,.606.085A3.564,3.564,0,0,1,4.122.612h.015a3.563,3.563,0,0,1,.015,7.125H4.137A3.564,3.564,0,0,1,.669,4.993a.306.306,0,0,0-.6.14A4.178,4.178,0,0,0,4.137,8.35h.017A4.175,4.175,0,0,0,4.138,0Z" transform="translate(458.818 2460.593)"/>
          <path id="Vector-3" data-name="Vector" d="M0,3a.953.953,0,0,0,.952.948h0a.947.947,0,0,0,.438-.108l.773.736a.306.306,0,1,0,.422-.444L1.816,3.4a.952.952,0,0,0-.561-1.3L1.247.305A.306.306,0,0,0,.941,0h0A.306.306,0,0,0,.635.307L.642,2.1A.953.953,0,0,0,0,3Zm.95-.343h0a.339.339,0,0,1,0,.678h0a.339.339,0,0,1,0-.678Z" transform="translate(462.003 2461.771)"/>
        </g>
      </g>
    </g>
  </g>
</svg>
