<svg xmlns="http://www.w3.org/2000/svg" width="21.94" height="25.074" viewBox="0 0 21.94 25.074">
  <g id="Group_96" data-name="Group 96" transform="translate(-137.091 -2558.574)">
    <circle id="Ellipse_8" data-name="Ellipse 8" cx="7.836" cy="7.836" r="7.836" transform="translate(137.091 2567.977)" fill="#1ac8f9"/>
    <g id="target_2_" data-name="target (2)">
      <path id="XMLID_753" data-name="XMLID 753" d="M16.518,7.609a8.85,8.85,0,1,1-3.232-3.232.326.326,0,0,1-.327.565,8.2,8.2,0,1,0,2.994,2.994.326.326,0,0,1,.565-.327ZM20.8,4.165l-2.77,2.77a.327.327,0,0,1-.315.085L15.05,6.306,9.084,12.272a.326.326,0,0,1-.462-.462l5.966-5.966-.714-2.663a.327.327,0,0,1,.085-.315L16.73.1a.326.326,0,0,1,.546.146L17.99,2.9l2.663.714a.327.327,0,0,1,.146.546ZM19.938,4.1l-2.3-.616a.326.326,0,0,1-.231-.231l-.616-2.3L14.555,3.195l.665,2.481L17.7,6.34ZM8.853,7.468A4.532,4.532,0,0,1,10.8,7.9a.326.326,0,1,0,.278-.591,5.224,5.224,0,1,0,2.508,2.508.326.326,0,0,0-.591.278,4.533,4.533,0,0,1,.433,1.945A4.573,4.573,0,1,1,8.853,7.468Z" transform="translate(138.136 2558.574)"/>
    </g>
  </g>
</svg>
