<svg xmlns="http://www.w3.org/2000/svg" width="41.79" height="41.79" viewBox="0 0 41.79 41.79">
  <g id="LinkedIn" transform="translate(-1179.513 -6206.456)">
    <path id="Background" d="M41.79,20.895A20.895,20.895,0,1,1,20.895,0,20.895,20.895,0,0,1,41.79,20.895Z" transform="translate(1179.513 6206.456)" fill="#fff"/>
    <path id="LinkedIn_Icon" data-name="LinkedIn Icon" d="M1201.682,6233.322h-2.76q0-.578,0-1.154v-.389c0-2.452.006-4.987-.065-7.49h2.392l.13,1.272h.044a3.221,3.221,0,0,1,2.758-1.466c2,0,3.191,1.458,3.191,3.9v5.324h-2.781v-5c0-1.3-.471-1.962-1.4-1.962a1.544,1.544,0,0,0-1.424,1.056,2.027,2.027,0,0,0-.086.711v5.2Zm-4.421,0h-2.76v-9.033h2.76v9.032Zm-1.4-10.132a1.365,1.365,0,0,1-1.422-1.4,1.456,1.456,0,1,1,1.422,1.4Z" fill="#fd5b2f"/>
  </g>
</svg>
