<svg xmlns="http://www.w3.org/2000/svg" width="15.88" height="21.104" viewBox="0 0 15.88 21.104">
  <g id="pin_2" data-name="pin 2" transform="translate(-176.457 -783.452)">
    <g id="Map_Pin" data-name="Map Pin">
      <path id="Vector" d="M7.836,0A7.845,7.845,0,0,0,0,7.836c0,5.3,7.294,12.653,7.6,12.964a.326.326,0,0,0,.462,0c.31-.31,7.6-7.665,7.6-12.964A7.845,7.845,0,0,0,7.836,0Zm0,20.1C6.581,18.789.653,12.354.653,7.836a7.183,7.183,0,1,1,14.365,0C15.018,12.354,9.09,18.789,7.836,20.1Z" transform="translate(176.562 783.557)" fill="#989898" stroke="#989898" stroke-width="0.209"/>
      <path id="Vector-2" data-name="Vector" d="M4.244,0a4.249,4.249,0,1,0,3,1.245A4.244,4.244,0,0,0,4.244,0Zm0,7.836A3.6,3.6,0,1,1,6.782,6.782,3.591,3.591,0,0,1,4.244,7.836Z" transform="translate(180.153 787.148)" fill="#989898" stroke="#989898" stroke-width="0.209"/>
    </g>
  </g>
</svg>
