<svg xmlns="http://www.w3.org/2000/svg" width="41.79" height="41.79" viewBox="0 0 41.79 41.79">
  <g id="Twitter" transform="translate(-1082.352 -6206.456)">
    <path id="Background" d="M20.895,41.79A20.895,20.895,0,1,0,0,20.895,20.895,20.895,0,0,0,20.895,41.79Z" transform="translate(1082.352 6206.456)" fill="#fff"/>
    <path id="Twitter_Icon" data-name="Twitter Icon" d="M10.287,1.4h0A1.974,1.974,0,0,0,8.555.8h0A1.961,1.961,0,0,0,9.574.4c0-.1,0-.2-.1-.2a1.947,1.947,0,0,0-.815.2c.306-.2.407-.3.407-.4A1.914,1.914,0,0,0,8.046.5c.1-.2.2-.3.1-.4a.788.788,0,0,0-.407.4,2.1,2.1,0,0,0-.611.8h0a8.741,8.741,0,0,0-.917,2h-.1a2.39,2.39,0,0,0-.917-.8,10.444,10.444,0,0,0-1.528-.8A11.15,11.15,0,0,0,1.731.9,1.851,1.851,0,0,0,2.75,2.6h0a1.763,1.763,0,0,0-.713.1c0,.6.509,1.1,1.426,1.3h0a1.663,1.663,0,0,0-.917.3,1.575,1.575,0,0,0,1.63.8,1.468,1.468,0,0,1-.306.2.434.434,0,0,0-.1.5c.2.3.407.4.917.4h0a3.279,3.279,0,0,1-2.648,1h0A3.312,3.312,0,0,1,0,6.3,6.734,6.734,0,0,0,2.954,8.6a7.44,7.44,0,0,0,4.176.1h0a7.276,7.276,0,0,0,3.463-2.3,4.717,4.717,0,0,0,.815-1.8A1.8,1.8,0,0,0,12.935,4h0a2.442,2.442,0,0,1-1.426-.1h0c.713-.1,1.222-.3,1.324-.7a2.02,2.02,0,0,1-1.528,0,2.732,2.732,0,0,0-1.018-1.8Z" transform="translate(1096.284 6223.371)" fill="#fd5b2f"/>
  </g>
</svg>
