<svg xmlns="http://www.w3.org/2000/svg" width="874.629" height="506.889" viewBox="0 0 874.629 506.889">
  <path id="Vector_36" data-name="Vector 36" d="M799.961,0c-10.447,0-35.1,21.1-50.148,105.519s-32.387,207.9-39.178,259.1c-5.746,37.959-20.79,117.325-35,131.115-17.761,17.238-43.879-6.791-74.177-94.549-4.875-12.711-7.522-36.461,20.895-29.775,35.521,8.358,92.982,26.641,106.041,36.044,10.447,7.522,88.977,40.048,126.936,55.371,13.233,6.965,32.8,8.358,1.045-37.611S662.751,279.643,585.789,235.589C486.19,178.825,274.56,61.013,224.83,43.879c-62.162-21.417-102.907-54.327-60.6,20.895C198.085,124.951,287.689,284.866,328.26,357.3c31.69,58.331,79.5,169.039,17.238,145.219C267.665,472.746,19.016,368.794,8.046,367.749S-11.8,379.241,46.179,417.9s122.235,74.177-15.671,45.969" transform="translate(874.081 506.367) rotate(180)" fill="none" stroke="#fd5b2f" stroke-width="1.045" opacity="0.221"/>
</svg>
