<svg xmlns="http://www.w3.org/2000/svg" width="50.14" height="52.237" viewBox="0 0 50.14 52.237">
  <path id="Vector" d="M50.072,19.352V11.294a5.746,5.746,0,0,0-5.74-5.74H42.821V4.648a4.672,4.672,0,0,0-9.345,0v.906H16.6V4.648a4.672,4.672,0,0,0-9.345,0v.906H5.739A5.746,5.746,0,0,0,0,11.294V46.5a5.746,5.746,0,0,0,5.739,5.74H44.332a5.746,5.746,0,0,0,5.74-5.74V20.18a1.294,1.294,0,0,0,0-.828ZM38.149,2.589a2.061,2.061,0,0,1,2.059,2.06V7.4a2.059,2.059,0,0,1-4.119,0V4.648A2.062,2.062,0,0,1,38.149,2.589ZM9.864,4.648a2.059,2.059,0,0,1,4.119,0V7.4a2.059,2.059,0,0,1-4.119,0ZM5.739,8.167H7.315a4.672,4.672,0,0,0,9.216,0H33.541a4.672,4.672,0,0,0,9.216,0h1.576a3.13,3.13,0,0,1,3.127,3.127v7.165H2.613V11.294A3.13,3.13,0,0,1,5.739,8.167ZM44.332,49.624H5.739A3.13,3.13,0,0,1,2.613,46.5V21.072H47.459V46.5a3.13,3.13,0,0,1-3.127,3.127Z" fill="#fd5b2f"/>
</svg>
